<svg width="512" height="506" viewBox="0 0 512 506" fill="none" xmlns="http://www.w3.org/2000/svg">
<path d="M512 14.9946V399.184C512 404.981 508.427 410.179 503.014 412.255L261.014 505.077C257.786 506.315 254.214 506.315 250.986 505.077L8.9863 412.255C3.57332 410.179 0 404.981 0 399.184V14.9945C0 5.27718 9.65726 -1.48473 18.7885 1.83898L251.211 86.4391C254.305 87.565 257.695 87.565 260.789 86.4391L493.211 1.83898C502.343 -1.48474 512 5.27722 512 14.9946Z" fill="#387ADF"/>
<path d="M356 271C356 326.229 311.228 371 256 371C200.772 371 156 326.229 156 271C156 215.772 200.772 171 256 171C311.228 171 356 215.772 356 271Z" fill="white"/>
<path d="M436.42 53.918C434.531 48.7282 437.207 42.9898 442.397 41.1009L479.985 27.4201C485.174 25.5312 490.913 28.207 492.802 33.3968C494.691 38.5866 492.015 44.325 486.825 46.2139L449.237 59.8947C444.048 61.7837 438.309 59.1078 436.42 53.918Z" fill="white"/>
</svg>
